<?xml version="1.0" encoding="utf-8"?>
<!-- Generator: Adobe Illustrator 26.0.2, SVG Export Plug-In . SVG Version: 6.00 Build 0)  -->
<svg version="1.1" id="Layer_1" xmlns="http://www.w3.org/2000/svg" xmlns:xlink="http://www.w3.org/1999/xlink" x="0px" y="0px"
	 viewBox="0 0 357 408.8" style="enable-background:new 0 0 357 408.8;" xml:space="preserve">
<style type="text/css">
	.st0{fill:#FF00FF;}
</style>
<path class="st0" d="M176.1,408.8c-2.4-1.8-4.8-3.7-7-5.7C114.5,348.4,59.9,293.6,5.4,238.9c-1.3-1.2-2.4-2.5-3.5-3.8
	c-3.9-5.2-1.4-11.9,4.9-13.4c1.7-0.3,3.4-0.4,5.1-0.4c28.3,0,56.7,0,85,0h5.1V12.6C102,2.5,104.5,0,114.8,0h128.1
	c9.8,0,12.4,2.5,12.4,12.2v209.1h5.1c28.3,0,56.7,0,85,0c1.9-0.1,3.7,0.1,5.5,0.5c4.4,1.1,7.1,5.6,5.9,10c-0.2,1-0.7,1.9-1.2,2.7
	c-0.9,1.3-2,2.5-3.2,3.6c-55.2,55.2-110.4,110.5-165.7,165.7c-1.9,1.9-4.4,3.3-6.6,5L176.1,408.8z"/>
</svg>
