<?xml version="1.0" encoding="utf-8"?>
<!-- Generator: Adobe Illustrator 26.0.2, SVG Export Plug-In . SVG Version: 6.00 Build 0)  -->
<svg version="1.1" id="Layer_1" xmlns="http://www.w3.org/2000/svg" xmlns:xlink="http://www.w3.org/1999/xlink" x="0px" y="0px"
	 viewBox="0 0 408 361" style="enable-background:new 0 0 408 361;" xml:space="preserve">
<style type="text/css">
	.st0{fill:#fdf200;}
</style>
<g>
	<path class="st0" d="M-0.4,177.8c1.8-2.4,3.7-4.8,5.7-7C60,116.2,114.8,61.6,169.5,7.1c1.2-1.3,2.5-2.4,3.8-3.5
		c5.2-3.9,11.9-1.4,13.4,4.9c0.3,1.7,0.4,3.4,0.4,5.1c0,28.3,0,56.7,0,85v5.1h208.7c10.2,0,12.6,2.5,12.6,12.8v128.1
		c0,9.8-2.5,12.4-12.2,12.4H187.1v5.1c0,28.3,0,56.7,0,85c0.1,1.9-0.1,3.7-0.5,5.5c-1.1,4.4-5.6,7.1-10,5.9c-1-0.2-1.9-0.7-2.7-1.2
		c-1.3-0.9-2.5-2-3.6-3.2C115,298.8,59.8,243.6,4.6,188.4c-1.9-1.9-3.3-4.4-5-6.6L-0.4,177.8z"/>
</g>
</svg>
