<?xml version="1.0" encoding="utf-8"?>
<!-- Generator: Adobe Illustrator 26.0.2, SVG Export Plug-In . SVG Version: 6.00 Build 0)  -->
<svg version="1.1" id="Layer_1" xmlns="http://www.w3.org/2000/svg" xmlns:xlink="http://www.w3.org/1999/xlink" x="0px" y="0px"
	 viewBox="0 0 408.8 357" style="enable-background:new 0 0 408.8 357;" xml:space="preserve">
<style type="text/css">
	.st0{fill:#ff85ea;}
</style>
<g>
	<path class="st0" d="M408.8,181c-1.8,2.4-3.7,4.8-5.7,7c-54.7,54.6-109.5,109.2-164.2,163.7c-1.2,1.3-2.5,2.4-3.8,3.5
		c-5.2,3.9-11.9,1.4-13.4-4.9c-0.3-1.7-0.4-3.4-0.4-5.1c0-28.3,0-56.7,0-85v-5.1H12.6C2.4,255.1,0,252.6,0,242.3V114.2
		c0-9.8,2.5-12.4,12.2-12.4h209.1v-5.1c0-28.3,0-56.7,0-85c-0.1-1.9,0.1-3.7,0.5-5.5c1.1-4.4,5.6-7.1,10-5.9c1,0.2,1.9,0.7,2.7,1.2
		c1.3,0.9,2.5,2,3.6,3.2C293.4,60,348.6,115.2,403.8,170.4c1.9,1.9,3.3,4.4,5,6.6V181z"/>
</g>
</svg>
