<?xml version="1.0" encoding="utf-8"?>
<!-- Generator: Adobe Illustrator 26.0.2, SVG Export Plug-In . SVG Version: 6.00 Build 0)  -->
<svg version="1.1" id="Layer_1" xmlns="http://www.w3.org/2000/svg" xmlns:xlink="http://www.w3.org/1999/xlink" x="0px" y="0px"
	 viewBox="0 0 357 408.9" style="enable-background:new 0 0 357 408.9;" xml:space="preserve">
<style type="text/css">
	.st0{fill:#F15A24;}
</style>
<g>
	<path class="st0" d="M181,0c2.4,1.8,4.8,3.7,7,5.7C242.6,60.4,297.2,115.2,351.7,170c1.3,1.2,2.4,2.5,3.5,3.8
		c3.9,5.2,1.4,11.9-4.9,13.4c-1.7,0.3-3.4,0.4-5.1,0.4c-28.3,0-56.7,0-85,0h-5.1v208.6c0,10.2-2.5,12.7-12.8,12.7H114.2
		c-9.8,0-12.4-2.5-12.4-12.2V187.5h-5.1c-28.3,0-56.7,0-85,0c-1.9,0.1-3.7-0.1-5.5-0.5c-4.4-1.1-7.1-5.6-5.9-10
		c0.2-1,0.7-1.9,1.2-2.7c0.9-1.3,2-2.5,3.2-3.6C59.9,115.5,115.1,60.2,170.4,5c1.9-1.9,4.4-3.3,6.6-5L181,0z"/>
</g>
</svg>
